<svg width="31" height="30" viewBox="0 0 31 30" fill="none" xmlns="http://www.w3.org/2000/svg">
<g id="mdi:instagram" clip-path="url(#clip0_114_285)">
<path id="Vector" d="M10.7934 2.79541H22.2189C26.5715 2.79541 30.108 5.98075 30.108 9.90117V20.1923C30.108 22.0768 29.2768 23.8842 27.7973 25.2168C26.3178 26.5494 24.3112 27.298 22.2189 27.298H10.7934C6.44077 27.298 2.9043 24.1127 2.9043 20.1923V9.90117C2.9043 8.01661 3.73546 6.20923 5.21495 4.87664C6.69443 3.54405 8.70105 2.79541 10.7934 2.79541ZM10.5213 5.24567C9.22265 5.24567 7.97716 5.71035 7.05886 6.53747C6.14056 7.36459 5.62466 8.48641 5.62466 9.65614V20.4373C5.62466 22.8753 7.81456 24.8478 10.5213 24.8478H22.4909C23.7896 24.8478 25.0351 24.3831 25.9534 23.556C26.8717 22.7288 27.3876 21.607 27.3876 20.4373V9.65614C27.3876 7.21813 25.1977 5.24567 22.4909 5.24567H10.5213ZM23.6471 7.08337C24.098 7.08337 24.5305 7.24471 24.8493 7.53191C25.1682 7.8191 25.3473 8.20863 25.3473 8.61478C25.3473 9.02094 25.1682 9.41046 24.8493 9.69765C24.5305 9.98485 24.098 10.1462 23.6471 10.1462C23.1962 10.1462 22.7637 9.98485 22.4448 9.69765C22.126 9.41046 21.9469 9.02094 21.9469 8.61478C21.9469 8.20863 22.126 7.8191 22.4448 7.53191C22.7637 7.24471 23.1962 7.08337 23.6471 7.08337ZM16.5061 8.92106C18.3098 8.92106 20.0397 9.56644 21.3151 10.7152C22.5905 11.864 23.307 13.4221 23.307 15.0467C23.307 16.6713 22.5905 18.2294 21.3151 19.3782C20.0397 20.527 18.3098 21.1724 16.5061 21.1724C14.7024 21.1724 12.9726 20.527 11.6972 19.3782C10.4217 18.2294 9.70521 16.6713 9.70521 15.0467C9.70521 13.4221 10.4217 11.864 11.6972 10.7152C12.9726 9.56644 14.7024 8.92106 16.5061 8.92106ZM16.5061 11.3713C15.4239 11.3713 14.386 11.7586 13.6207 12.4478C12.8555 13.1371 12.4256 14.0719 12.4256 15.0467C12.4256 16.0215 12.8555 16.9563 13.6207 17.6456C14.386 18.3349 15.4239 18.7221 16.5061 18.7221C17.5884 18.7221 18.6263 18.3349 19.3915 17.6456C20.1568 16.9563 20.5867 16.0215 20.5867 15.0467C20.5867 14.0719 20.1568 13.1371 19.3915 12.4478C18.6263 11.7586 17.5884 11.3713 16.5061 11.3713Z" fill="#C64B38"/>
</g>
<defs>
<clipPath id="clip0_114_285">
<rect width="30" height="30" fill="white" transform="translate(0.59375)"/>
</clipPath>
</defs>
</svg>
