<svg width="20" height="21" viewBox="0 0 20 21" fill="none" xmlns="http://www.w3.org/2000/svg">
<path id="Vector" d="M15.9334 3.29C15.105 2.37956 14.6486 1.21034 14.6489 0H10.9047V14.4667C10.8758 15.2495 10.5325 15.9911 9.9471 16.5351C9.36171 17.0791 8.57988 17.3832 7.76626 17.3833C6.0456 17.3833 4.61575 16.03 4.61575 14.35C4.61575 12.3433 6.62723 10.8383 8.6993 11.4567V7.77C4.51881 7.23333 0.859375 10.36 0.859375 14.35C0.859375 18.235 4.20376 21 7.75415 21C11.559 21 14.6489 18.025 14.6489 14.35V7.01167C16.1672 8.06149 17.9901 8.62475 19.8594 8.62167V5.01667C19.8594 5.01667 17.5813 5.12167 15.9334 3.29Z" fill="#C64B38"/>
</svg>
