<svg width="26" height="26" viewBox="0 0 26 26" fill="none" xmlns="http://www.w3.org/2000/svg">
<path d="M17.6405 5.00374C15.623 5.05924 14.0592 5.60671 12.5367 6.13617C10.9085 6.70163 9.37175 7.23485 7.2425 7.2566C5.81975 7.2791 4.39475 7.03311 2.9945 6.54864L2 6.20517V19.0158L2.4995 19.1936C3.80375 19.6548 5.13725 19.921 6.46475 19.984C6.6755 19.9938 6.88175 19.999 7.08425 19.999C9.344 19.999 11.0743 19.3991 12.752 18.8201C14.5205 18.2081 16.1885 17.6299 18.4647 17.7372C19.6713 17.7991 20.8622 18.0377 21.9995 18.4451L23 18.7991V5.98318L22.5065 5.80319C21.2303 5.33845 19.8906 5.07138 18.5338 5.01124C18.2362 4.99803 17.9382 4.99553 17.6405 5.00374ZM17.681 6.49315C17.936 6.48565 18.197 6.48565 18.4678 6.49615C18.7483 6.50815 19.0287 6.53364 19.3085 6.56664C19.4226 7.0372 19.7147 7.44521 20.1234 7.70491C20.532 7.96462 21.0255 8.0558 21.5 7.9593V14.7854C21.2543 14.7354 21.0011 14.7352 20.7553 14.785C20.5096 14.8348 20.2764 14.9334 20.0695 15.0751C19.8626 15.2167 19.6864 15.3985 19.5511 15.6096C19.4159 15.8207 19.3244 16.0569 19.2822 16.304C19.0338 16.2785 18.7847 16.26 18.5353 16.2485C15.974 16.136 14.0855 16.7802 12.26 17.4132C10.4893 18.0267 8.8115 18.6064 6.53675 18.4984C6.25344 18.4836 5.97076 18.4585 5.68925 18.4234C5.57417 17.9541 5.28202 17.5476 4.87395 17.2888C4.46589 17.0301 3.97355 16.9392 3.5 17.0352V10.2092C3.74716 10.2595 4.00194 10.2592 4.24901 10.2085C4.49608 10.1578 4.73033 10.0576 4.93766 9.91392C5.14499 9.77029 5.32112 9.5862 5.45544 9.37273C5.58976 9.15926 5.6795 8.92081 5.71925 8.67176C6.233 8.725 6.74675 8.75575 7.259 8.7475C9.63275 8.7235 11.3585 8.12279 13.0287 7.54233C14.4995 7.03011 15.9013 6.54864 17.681 6.49315ZM12.5 8.7475C10.8455 8.7475 9.5 10.4296 9.5 12.4973C9.5 14.5649 10.8455 16.247 12.5 16.247C14.1545 16.247 15.5 14.5649 15.5 12.4973C15.5 10.4296 14.1545 8.7475 12.5 8.7475ZM12.5 10.2474C13.313 10.2474 14 11.2778 14 12.4973C14 13.7167 13.313 14.7471 12.5 14.7471C11.687 14.7471 11 13.7167 11 12.4973C11 11.2778 11.687 10.2474 12.5 10.2474ZM18.125 10.2474C17.8266 10.2474 17.5405 10.3659 17.3295 10.5769C17.1185 10.7879 17 11.074 17 11.3723C17 11.6707 17.1185 11.9568 17.3295 12.1678C17.5405 12.3787 17.8266 12.4973 18.125 12.4973C18.4234 12.4973 18.7095 12.3787 18.9205 12.1678C19.1315 11.9568 19.25 11.6707 19.25 11.3723C19.25 11.074 19.1315 10.7879 18.9205 10.5769C18.7095 10.3659 18.4234 10.2474 18.125 10.2474ZM6.875 12.4973C6.57663 12.4973 6.29048 12.6158 6.0795 12.8267C5.86853 13.0377 5.75 13.3238 5.75 13.6222C5.75 13.9205 5.86853 14.2067 6.0795 14.4176C6.29048 14.6286 6.57663 14.7471 6.875 14.7471C7.17337 14.7471 7.45952 14.6286 7.6705 14.4176C7.88147 14.2067 8 13.9205 8 13.6222C8 13.3238 7.88147 13.0377 7.6705 12.8267C7.45952 12.6158 7.17337 12.4973 6.875 12.4973Z" fill="#c64b38"/>
</svg>
